<svg width="720" height="720" viewBox="0 0 720 720" fill="none" xmlns="http://www.w3.org/2000/svg">
<path d="M592.5 0H127.5C57.0837 0 0 58.5474 0 130.769V589.231C0 661.453 57.0837 720 127.5 720H592.5C662.916 720 720 661.453 720 589.231V130.769C720 58.5474 662.916 0 592.5 0Z" fill="url(#paint0_linear_304_974)"/>
<path d="M592.5 0H127.5C57.0837 0 0 58.5474 0 130.769V589.231C0 661.453 57.0837 720 127.5 720H592.5C662.916 720 720 661.453 720 589.231V130.769C720 58.5474 662.916 0 592.5 0Z" fill="url(#paint1_linear_304_974)"/>
<path d="M279.925 392.545C277.042 392.545 276.459 390.418 276.459 386.731V350.132C276.459 337.622 269.4 330.17 257.552 330.17C243.373 330.17 237.071 341.025 236.897 351.786V352.227H246.35V351.786C246.281 349.995 246.565 348.207 247.187 346.526C247.809 344.844 248.756 343.302 249.974 341.986C250.904 341.029 252.019 340.271 253.252 339.759C254.484 339.247 255.808 338.991 257.143 339.009C262.799 339.009 266.17 343.42 266.17 350.809V354.244L254.906 359.585C242.16 365.556 233.73 370.425 233.73 383.029C233.73 394.057 240.694 401.525 251.061 401.525C254.15 401.432 257.179 400.648 259.924 399.23C262.67 397.813 265.063 395.797 266.927 393.333C267.491 395.764 268.896 397.918 270.894 399.414C272.891 400.91 275.353 401.652 277.845 401.51C279.853 401.493 281.838 401.086 283.69 400.312L283.958 400.202V391.269L283.312 391.631C282.302 392.273 281.121 392.592 279.925 392.545ZM266.202 363.319V384.667C264.892 386.98 263.04 388.94 260.807 390.38C258.573 391.821 256.024 392.699 253.377 392.939C252.205 393.013 251.03 392.855 249.919 392.474C248.809 392.092 247.785 391.495 246.906 390.716C246.027 389.936 245.311 388.991 244.8 387.934C244.288 386.877 243.99 385.729 243.924 384.557C243.893 384.08 243.893 383.601 243.924 383.123C243.924 374.694 251.298 370.204 257.71 367.226L266.202 363.319Z" fill="white"/>
<path d="M332.595 309.736H322.622L322.259 331.526H313.121V340.837H322.243V385.85C322.243 395.949 326.97 401.511 335.572 401.511C339.16 401.464 342.671 400.469 345.75 398.627L345.971 398.501V389.048L345.262 389.631C343.27 391.361 340.745 392.356 338.109 392.451C333.556 392.451 332.595 388.654 332.595 385.472V340.853H347.294V331.542H332.595V309.736Z" fill="white"/>
<path d="M212.634 384.069C208.727 389.725 204.237 392.845 200.03 392.845C194.453 392.845 192.467 387.378 192.467 382.257V331.525H182.164V382.73C182.164 394.672 187.552 401.526 196.958 401.526C200.063 401.509 203.12 400.756 205.877 399.329C208.635 397.902 211.016 395.842 212.823 393.317L213.012 400.265H222.875V331.525H212.618L212.634 384.069Z" fill="white"/>
<path d="M159.681 337.764C158.375 335.392 156.432 333.432 154.071 332.107C151.71 330.782 149.025 330.144 146.32 330.264C143.361 330.305 140.455 331.054 137.845 332.45C135.236 333.845 132.998 335.846 131.321 338.284C126.595 344.586 124.2 353.913 124.2 365.934C124.2 392.261 134.835 401.62 144.792 401.62C147.41 401.698 150.01 401.158 152.38 400.044C154.751 398.93 156.826 397.273 158.436 395.208V449.784H168.803V331.525H159.917L159.681 337.764ZM158.468 347.217V384.825C155.616 389.977 152.165 392.387 147.581 392.387C139.12 392.387 134.819 383.438 134.819 365.793C134.819 348.84 139.656 339.119 148.069 339.119C150.438 339.201 152.719 340.035 154.582 341.499C156.446 342.963 157.796 344.982 158.436 347.264L158.468 347.217Z" fill="white"/>
<path d="M302.454 299.4H292.198V400.25H302.454V299.4Z" fill="white"/>
<path d="M406.376 331.525H396.119V400.265H406.376V331.525Z" fill="white"/>
<path d="M406.36 309.641H396.214V321.536H406.36V309.641Z" fill="white"/>
<path d="M367.76 339.561L367.24 331.542H357.504V400.361H367.76V350.826C372.487 341.373 378.411 340.097 384.177 340.081L386.603 340.286V330.266H383.815C376.52 330.266 372.503 332.55 367.76 339.561Z" fill="white"/>
<path d="M490.226 359.444L489.958 359.791L490.163 359.413C483.735 356.089 479.134 353.284 479.134 347.502C479.07 345.344 479.863 343.248 481.339 341.671C482.814 340.095 484.854 339.167 487.012 339.089C487.321 339.065 487.632 339.065 487.941 339.089C489.228 339.039 490.509 339.267 491.7 339.756C492.891 340.245 493.962 340.985 494.842 341.925C495.923 343.275 496.715 344.834 497.167 346.503C497.62 348.173 497.724 349.918 497.473 351.63V352.103H506.926V351.693C507.186 348.808 506.855 345.901 505.953 343.149C505.051 340.396 503.597 337.857 501.68 335.686C499.91 333.881 497.785 332.463 495.439 331.522C493.094 330.581 490.578 330.137 488.052 330.218C477.023 330.218 469.256 337.545 469.256 348.038C469.256 359.476 478.409 364.376 485.105 367.952C491.801 371.529 498.056 374.979 498.056 382.132C498.102 383.451 497.888 384.765 497.425 386.001C496.961 387.236 496.259 388.368 495.357 389.331C494.455 390.295 493.372 391.07 492.17 391.614C490.968 392.157 489.67 392.458 488.351 392.499C488.12 392.515 487.888 392.515 487.658 392.499C481.088 392.499 476.377 386.985 476.172 379.091V378.666H466.609V379.107C466.924 392.987 474.975 401.605 487.642 401.605C490.138 401.768 492.642 401.437 495.01 400.632C497.379 399.827 499.566 398.563 501.446 396.913C503.326 395.262 504.862 393.258 505.967 391.014C507.073 388.77 507.725 386.33 507.887 383.834C507.927 383.104 507.927 382.373 507.887 381.644C507.966 368.835 498.545 363.84 490.226 359.444Z" fill="white"/>
<path d="M450.223 378.68C450.313 382.78 448.964 386.783 446.411 389.992C445.626 390.816 444.679 391.467 443.629 391.903C442.58 392.34 441.45 392.553 440.313 392.529C432.436 392.529 428.245 383.328 428.245 365.95C428.245 348.572 432.562 339.166 440.408 339.166C441.466 339.143 442.517 339.341 443.493 339.748C444.47 340.155 445.351 340.762 446.08 341.529C448.477 344.49 449.759 348.198 449.703 352.006H459.409C459.692 345.906 457.661 339.924 453.721 335.259C452.037 333.567 450.017 332.246 447.793 331.38C445.568 330.515 443.186 330.124 440.802 330.233C426.102 330.233 418.02 342.837 418.02 365.918C418.02 389 425.945 401.509 440.124 401.509C451.61 401.509 458.794 393.017 459.708 378.649L450.223 378.68Z" fill="white"/>
<path d="M522.492 394.751C522.71 394.344 522.824 393.89 522.823 393.428C522.838 393.115 522.788 392.803 522.677 392.51C522.566 392.217 522.396 391.951 522.177 391.726C521.642 391.277 520.952 391.057 520.255 391.112H516.6V398.438H518.412V395.823H519.798L521.027 398.438H523.075L521.5 395.602C521.917 395.439 522.267 395.139 522.492 394.751V394.751ZM520.68 394.168C520.37 394.311 520.029 394.376 519.688 394.357H518.412V392.498H519.688C520.034 392.468 520.38 392.545 520.68 392.719C520.802 392.801 520.898 392.915 520.959 393.049C521.02 393.182 521.044 393.329 521.027 393.475C521.045 393.612 521.021 393.751 520.96 393.875C520.898 393.998 520.801 394.101 520.68 394.168V394.168Z" fill="white"/>
<path d="M525.612 392.059C525.296 391.283 524.824 390.581 524.225 389.995C523.624 389.424 522.918 388.974 522.146 388.672C520.484 388.026 518.64 388.026 516.978 388.672C516.206 388.974 515.499 389.424 514.898 389.995C514.3 390.581 513.828 391.283 513.512 392.059C512.834 393.769 512.834 395.674 513.512 397.384C513.83 398.163 514.302 398.87 514.898 399.464C515.495 400.049 516.202 400.51 516.978 400.819C518.643 401.45 520.481 401.45 522.146 400.819C522.922 400.51 523.629 400.049 524.225 399.464C524.828 398.875 525.3 398.167 525.612 397.384C526.289 395.674 526.289 393.769 525.612 392.059V392.059ZM524.351 396.864C524.097 397.493 523.722 398.065 523.249 398.55C522.805 399.014 522.268 399.38 521.673 399.622C520.379 400.142 518.934 400.142 517.64 399.622C517.047 399.375 516.511 399.011 516.064 398.55C515.595 398.065 515.226 397.492 514.977 396.864C514.425 395.489 514.425 393.954 514.977 392.579C515.226 391.956 515.596 391.389 516.064 390.909C516.51 390.443 517.046 390.073 517.64 389.822C518.937 389.317 520.376 389.317 521.673 389.822C522.269 390.069 522.806 390.44 523.249 390.909C523.722 391.388 524.097 391.955 524.351 392.579C524.9 393.971 524.9 395.519 524.351 396.912V396.864Z" fill="white"/>
<path d="M582.614 309.293L573.744 340.662H573.633L564.18 309.293H543.084L535.884 322.086L528.258 309.293H517.561L530.007 329.413L516.347 351.942H526.194L534.954 337.038L544.014 351.942H560.147V322.37H560.273C560.494 323.615 560.698 324.67 560.903 325.521C561.108 326.372 561.297 327.223 561.486 327.963C561.675 328.704 561.88 329.428 562.085 330.106C562.29 330.783 562.526 331.524 562.747 332.327L569.049 351.911H577.352L583.748 332.327C584.205 330.752 584.646 329.176 585.056 327.774C585.494 326.139 585.846 324.483 586.112 322.811H586.222V351.911H595.281V309.277L582.614 309.293ZM540.61 329.46L551.734 310.979V347.563L540.61 329.46Z" fill="white"/>
<defs>
<linearGradient id="paint0_linear_304_974" x1="216" y1="-62.5002" x2="881.177" y2="181.827" gradientUnits="userSpaceOnUse">
<stop stop-color="#21DCAB"/>
<stop offset="1" stop-color="#393CE2"/>
</linearGradient>
<linearGradient id="paint1_linear_304_974" x1="189.943" y1="5.2644" x2="776.923" y2="793.926" gradientUnits="userSpaceOnUse">
<stop offset="0.04" stop-color="#21DBAA"/>
<stop offset="0.36" stop-color="#00B4EF"/>
<stop offset="0.43" stop-color="#01A7EC"/>
<stop offset="0.57" stop-color="#0487E4"/>
<stop offset="0.68" stop-color="#0768DD"/>
<stop offset="0.96" stop-color="#5F1AE5"/>
</linearGradient>
</defs>
</svg>
